<mxfile host="app.diagrams.net" agent="Mozilla/5.0 (Windows NT 10.0; Win64; x64; rv:139.0) Gecko/20100101 Firefox/139.0" version="27.1.0">
  <diagram name="Page-1" id="aC610Xakk1KsU0vBIlgt">
    <mxGraphModel dx="888" dy="509" grid="1" gridSize="10" guides="1" tooltips="1" connect="1" arrows="1" fold="1" page="1" pageScale="1" pageWidth="850" pageHeight="1100" math="0" shadow="0">
      <root>
        <mxCell id="0" />
        <mxCell id="1" parent="0" />
        <mxCell id="6908pkDLkclZakEo6qM3-1" value="&lt;div&gt;Infected&amp;nbsp;&lt;i&gt;&lt;br&gt;&lt;/i&gt;&lt;/div&gt;&lt;div&gt;individual&lt;/div&gt;" style="rounded=1;whiteSpace=wrap;html=1;fillColor=#dae8fc;strokeColor=#6c8ebf;" vertex="1" parent="1">
          <mxGeometry x="400" y="380" width="80" height="40" as="geometry" />
        </mxCell>
        <mxCell id="6908pkDLkclZakEo6qM3-20" style="edgeStyle=none;curved=1;rounded=0;orthogonalLoop=1;jettySize=auto;html=1;exitX=0.5;exitY=1;exitDx=0;exitDy=0;entryX=0.5;entryY=0;entryDx=0;entryDy=0;fontSize=12;startSize=8;endSize=8;" edge="1" parent="1" source="6908pkDLkclZakEo6qM3-3" target="6908pkDLkclZakEo6qM3-1">
          <mxGeometry relative="1" as="geometry" />
        </mxCell>
        <mxCell id="6908pkDLkclZakEo6qM3-3" value="&lt;div&gt;&lt;i&gt;Borrelia&lt;/i&gt;&lt;/div&gt;&lt;div&gt;prevalence&lt;/div&gt;" style="rounded=1;whiteSpace=wrap;html=1;fillColor=#fff2cc;strokeColor=#d6b656;rotation=0;" vertex="1" parent="1">
          <mxGeometry x="400" y="280" width="80" height="40" as="geometry" />
        </mxCell>
        <mxCell id="6908pkDLkclZakEo6qM3-21" style="edgeStyle=none;curved=1;rounded=0;orthogonalLoop=1;jettySize=auto;html=1;exitX=0.5;exitY=0;exitDx=0;exitDy=0;entryX=0.5;entryY=1;entryDx=0;entryDy=0;fontSize=12;startSize=8;endSize=8;" edge="1" parent="1" source="6908pkDLkclZakEo6qM3-4" target="6908pkDLkclZakEo6qM3-1">
          <mxGeometry relative="1" as="geometry" />
        </mxCell>
        <mxCell id="6908pkDLkclZakEo6qM3-4" value="&lt;div&gt;Sex&lt;/div&gt;" style="rounded=1;whiteSpace=wrap;html=1;fillColor=#dae8fc;strokeColor=#6c8ebf;rotation=0;" vertex="1" parent="1">
          <mxGeometry x="400" y="480" width="80" height="40" as="geometry" />
        </mxCell>
        <mxCell id="6908pkDLkclZakEo6qM3-19" style="edgeStyle=none;curved=1;rounded=0;orthogonalLoop=1;jettySize=auto;html=1;exitX=1;exitY=0.5;exitDx=0;exitDy=0;entryX=0;entryY=1;entryDx=0;entryDy=0;fontSize=12;startSize=8;endSize=8;" edge="1" parent="1" source="6908pkDLkclZakEo6qM3-5" target="6908pkDLkclZakEo6qM3-1">
          <mxGeometry relative="1" as="geometry" />
        </mxCell>
        <mxCell id="6908pkDLkclZakEo6qM3-5" value="&lt;div&gt;Immune&amp;nbsp;&lt;/div&gt;&lt;div&gt;expression&lt;/div&gt;" style="rounded=1;whiteSpace=wrap;html=1;fillColor=#dae8fc;strokeColor=#6c8ebf;rotation=0;" vertex="1" parent="1">
          <mxGeometry x="280" y="420" width="80" height="40" as="geometry" />
        </mxCell>
        <mxCell id="6908pkDLkclZakEo6qM3-18" style="edgeStyle=none;curved=1;rounded=0;orthogonalLoop=1;jettySize=auto;html=1;exitX=1;exitY=0.5;exitDx=0;exitDy=0;entryX=0;entryY=0;entryDx=0;entryDy=0;fontSize=12;startSize=8;endSize=8;" edge="1" parent="1" source="6908pkDLkclZakEo6qM3-6" target="6908pkDLkclZakEo6qM3-1">
          <mxGeometry relative="1" as="geometry" />
        </mxCell>
        <mxCell id="6908pkDLkclZakEo6qM3-6" value="&lt;div&gt;Ticks&lt;/div&gt;&lt;div&gt;attached&lt;/div&gt;" style="rounded=1;whiteSpace=wrap;html=1;fillColor=#dae8fc;strokeColor=#6c8ebf;rotation=0;" vertex="1" parent="1">
          <mxGeometry x="280" y="340" width="80" height="40" as="geometry" />
        </mxCell>
        <mxCell id="6908pkDLkclZakEo6qM3-23" style="edgeStyle=none;curved=1;rounded=0;orthogonalLoop=1;jettySize=auto;html=1;exitX=0;exitY=0.5;exitDx=0;exitDy=0;entryX=1;entryY=0;entryDx=0;entryDy=0;fontSize=12;startSize=8;endSize=8;" edge="1" parent="1" source="6908pkDLkclZakEo6qM3-7" target="6908pkDLkclZakEo6qM3-1">
          <mxGeometry relative="1" as="geometry" />
        </mxCell>
        <mxCell id="6908pkDLkclZakEo6qM3-7" value="Weight" style="rounded=1;whiteSpace=wrap;html=1;fillColor=#dae8fc;strokeColor=#6c8ebf;rotation=0;" vertex="1" parent="1">
          <mxGeometry x="520" y="340" width="80" height="40" as="geometry" />
        </mxCell>
        <mxCell id="6908pkDLkclZakEo6qM3-22" style="edgeStyle=none;curved=1;rounded=0;orthogonalLoop=1;jettySize=auto;html=1;exitX=0;exitY=0.5;exitDx=0;exitDy=0;entryX=1;entryY=1;entryDx=0;entryDy=0;fontSize=12;startSize=8;endSize=8;" edge="1" parent="1" source="6908pkDLkclZakEo6qM3-8" target="6908pkDLkclZakEo6qM3-1">
          <mxGeometry relative="1" as="geometry" />
        </mxCell>
        <mxCell id="6908pkDLkclZakEo6qM3-8" value="Age" style="rounded=1;whiteSpace=wrap;html=1;fillColor=#dae8fc;strokeColor=#6c8ebf;rotation=0;" vertex="1" parent="1">
          <mxGeometry x="520" y="420" width="80" height="40" as="geometry" />
        </mxCell>
        <mxCell id="6908pkDLkclZakEo6qM3-9" style="edgeStyle=none;curved=1;rounded=0;orthogonalLoop=1;jettySize=auto;html=1;exitX=1;exitY=0.5;exitDx=0;exitDy=0;fontSize=12;startSize=8;endSize=8;" edge="1" parent="1" source="6908pkDLkclZakEo6qM3-8" target="6908pkDLkclZakEo6qM3-8">
          <mxGeometry relative="1" as="geometry" />
        </mxCell>
        <mxCell id="6908pkDLkclZakEo6qM3-24" value="&lt;div&gt;Habitat and&lt;/div&gt;&lt;div&gt;resources&lt;/div&gt;" style="rounded=0;whiteSpace=wrap;html=1;fillColor=#d5e8d4;strokeColor=#82b366;rotation=0;" vertex="1" parent="1">
          <mxGeometry x="680" y="400" width="80" height="40" as="geometry" />
        </mxCell>
        <mxCell id="6908pkDLkclZakEo6qM3-25" value="&lt;i&gt;Ixodes&lt;/i&gt;" style="rounded=0;whiteSpace=wrap;html=1;fillColor=#fff2cc;strokeColor=#d6b656;rotation=0;" vertex="1" parent="1">
          <mxGeometry x="680" y="360" width="80" height="40" as="geometry" />
        </mxCell>
        <mxCell id="6908pkDLkclZakEo6qM3-26" value="&lt;i&gt;Peromyscus&lt;/i&gt;" style="rounded=0;whiteSpace=wrap;html=1;fillColor=#dae8fc;strokeColor=#6c8ebf;rotation=0;" vertex="1" parent="1">
          <mxGeometry x="680" y="320" width="80" height="40" as="geometry" />
        </mxCell>
        <mxCell id="6908pkDLkclZakEo6qM3-27" value="&lt;div&gt;Climate and&lt;/div&gt;&lt;div&gt;weather&lt;/div&gt;" style="rounded=0;whiteSpace=wrap;html=1;fillColor=#f8cecc;strokeColor=#b85450;rotation=0;" vertex="1" parent="1">
          <mxGeometry x="680" y="440" width="80" height="40" as="geometry" />
        </mxCell>
        <mxCell id="6908pkDLkclZakEo6qM3-29" value="&lt;b&gt;Legend:&lt;/b&gt;" style="rounded=0;whiteSpace=wrap;html=1;rotation=0;" vertex="1" parent="1">
          <mxGeometry x="680" y="300" width="80" height="20" as="geometry" />
        </mxCell>
      </root>
    </mxGraphModel>
  </diagram>
</mxfile>
